# xmcd
#
# Track frame offsets:
#	150
#	21654
#	37188
#	58221
#	74291
#	95088
#	112517
#	129127
#
# Disc length: 1909 seconds
#
# Revision: 0
# Processed by: cddbd v1.5.2PL0 Copyright (c) Steve Scherf et al.
# Submitted via: dBpowerAMP V4.0
#
DISCID=6d077308
DTITLE=Stewe Cato - En Väg In
DYEAR=1900
DGENRE=Blues
TTITLE0=En Väg In
TTITLE1=Lyft Inte Kjolen
TTITLE2=Dansa Min Flicka
TTITLE3=Marias Tyger
TTITLE4=Lockas Du Av Att Skratta
TTITLE5=Toaletten
TTITLE6=En Vacker Kvinna
TTITLE7=Älskling
EXTD=
EXTT0=
EXTT1=
EXTT2=
EXTT3=
EXTT4=
EXTT5=
EXTT6=
EXTT7=
PLAYORDER=
